# This file uses centimeters as units for non-parametric coordinates.

mtllib CryptTexture.mtl
g default
v -2.309752 0.223743 2.734856
v -0.269157 0.223743 2.734856
v -2.309752 0.334863 2.734856
v -0.269157 0.334863 2.734856
v -2.309752 0.334863 1.734856
v -0.269157 0.334863 1.734856
v -2.309752 0.223743 1.734856
v -0.269157 0.223743 1.734856
v -2.190948 0.334863 2.632727
v -0.387957 0.334863 2.632727
v -0.387957 0.334863 1.836985
v -2.190948 0.334863 1.836985
v -2.190948 1.645399 2.782259
v -0.387957 1.645399 2.782259
v -0.387957 1.645399 1.687453
v -2.190948 1.645399 1.687453
v -2.361655 1.645399 2.960572
v -0.217252 1.645399 2.960572
v -0.217252 1.645399 1.509140
v -2.361655 1.645399 1.509140
v -2.361655 1.780127 2.960572
v -0.217252 1.780127 2.960572
v -0.217252 1.780127 1.509140
v -2.361655 1.780127 1.509140
v -2.361655 2.528271 2.234856
v -0.217252 2.528271 2.234856
v -2.361655 1.780127 2.960572
v -0.217252 1.780127 2.960572
v -0.217252 2.526426 2.234856
v -2.361655 2.526426 2.234856
v -2.361655 1.780127 1.509140
v -0.217252 1.780127 1.509140
v -2.273044 1.856117 2.886677
v -0.305864 1.856117 2.886677
v -0.314922 2.528271 2.243463
v -2.263984 2.528271 2.243463
v -2.273044 1.856117 2.886677
v -0.305864 1.856117 2.886677
v -0.305864 2.450436 2.308751
v -2.273044 2.450436 2.308751
v -2.254927 1.838415 1.565820
v -0.323981 1.838415 1.565820
v -2.254927 1.838415 1.565820
v -0.323981 1.838415 1.565820
v -2.254927 2.468140 2.178175
v -0.323981 2.468140 2.178175
v -2.254927 1.771752 1.634373
v -0.323981 1.771752 1.634373
v -2.257103 2.393278 2.246707
v -0.321804 2.393278 2.246707
v -2.273044 1.776617 2.804920
v -0.305864 1.776617 2.804920
v -0.217252 1.812433 2.854255
v -0.217252 1.812433 1.615456
v -0.217252 2.450974 2.234856
v -0.297412 1.812433 2.854255
v -0.297412 1.812433 1.615456
v -0.297412 2.450974 2.234856
v -0.387957 0.421156 2.502199
v -0.387957 0.421156 1.967513
v -0.387957 1.414681 1.867037
v -0.387957 1.414681 2.602675
v -2.020545 0.386102 2.555522
v -2.020545 0.386102 1.914190
v -2.020545 1.442335 1.793674
v -2.020545 1.442335 2.676038
v -0.387957 1.531919 2.228220
v -0.387957 1.442335 1.793239
v -2.020545 1.442335 1.793239
v -2.020545 1.442335 2.675603
vt 0.863993 0.334090
vt 0.804421 0.015299
vt 0.879831 0.339190
vt 0.814775 0.001785
vt 0.701439 0.383773
vt 0.635033 0.041400
vt 0.711038 0.369590
vt 0.650473 0.047766
vt 0.431824 0.270709
vt 0.127482 0.239175
vt 0.079167 0.132968
vt 0.422333 0.387002
vt 0.136781 0.817261
vt 0.311476 0.179561
vt 0.245003 0.033439
vt 0.045361 0.685304
vt 0.989564 0.184504
vt 1.109453 0.472990
vt 1.343632 0.415881
vt 1.214715 0.061634
vt 0.969133 0.184341
vt 1.097457 0.489913
vt 1.364172 0.423291
vt 1.222823 0.041602
vt 1.039348 0.086074
vt 1.215261 0.530803
vt 0.969110 0.184343
vt 1.097437 0.489925
vt 1.215281 0.530839
vt 1.039340 0.086019
vt 1.364196 0.423292
vt 1.222825 0.041585
vt 0.578910 0.594296
vt 0.825042 0.489768
vt 1.212745 0.542090
vt 0.604701 0.757182
vt 0.578927 0.594307
vt 0.825021 0.489781
vt 0.915492 0.567793
vt 0.603632 0.739844
vt 1.375367 0.415324
vt 1.231431 0.039492
vt 0.948338 0.737434
vt 0.701068 0.843358
vt 0.612571 0.757270
vt 0.926689 0.584434
vt 0.937143 0.728471
vt 0.700743 0.828524
vt 0.618302 0.742010
vt 0.910900 0.581876
vt 0.592185 0.604740
vt 0.826353 0.507468
vt 1.117100 0.487928
vt 1.343324 0.431336
vt 1.217106 0.524086
vt 1.126898 0.486529
vt 1.334689 0.436120
vt 1.216872 0.515959
vt 0.976480 0.325311
vt 0.522116 0.676651
vt 0.225113 0.071417
vt 0.919603 0.809541
vt 0.335529 0.243982
vt 0.291929 0.743038
vt 0.128647 0.365937
vt 0.311721 0.000000
vt 0.262691 0.112505
vt 0.367176 0.345706
vt 0.128652 0.366001
vt 0.311720 0.000079
vt 1.375398 0.415342
vt 1.212745 0.542090
vt 0.927269 0.575469
vt 1.231443 0.039457
vt 1.029485 0.081511
vt 1.029485 0.081511
vt 0.956412 0.188805
vt 1.085850 0.495704
vt 0.131096 0.853008
vt 0.009896 0.678067
vt 0.268360 0.499002
vt 0.389560 0.673942
vt 0.616630 0.000252
vt 0.262675 0.534748
vt 0.371096 0.646362
vt 0.821426 0.000247
vt 0.423319 0.006474
vt 0.897546 0.336643
vt 0.694455 0.385838
vt 0.623441 0.043944
vt 0.331019 0.127961
vt 0.181102 0.222754
vt 0.682816 0.846554
vt 0.337749 0.892031
vt 0.178126 0.352100
vt 0.331025 0.127910
vt 0.565225 0.816585
vt 0.366197 0.334192
vt 0.742192 0.375330
vt 0.710258 1.000000
vt 0.269779 0.169601
vt 0.764817 0.466606
vt 0.333367 0.337996
vt 0.098610 0.145150
vt 0.995343 0.401409
vt 0.131074 0.216514
vt 0.945308 0.953690
vt 0.560839 0.683846
vt 0.354095 0.666705
vt 0.625134 0.264487
vt 0.612076 0.424486
vn 0.000000 0.000000 1.000000
vn 0.000000 0.000000 1.000000
vn 0.000000 0.000000 1.000000
vn 0.000000 0.000000 1.000000
vn 0.000000 0.000000 -1.000000
vn 0.000000 0.000000 -1.000000
vn 0.000000 0.000000 -1.000000
vn 0.000000 0.000000 -1.000000
vn 0.000000 -1.000000 0.000000
vn 0.000000 -1.000000 0.000000
vn 0.000000 -1.000000 0.000000
vn 0.000000 -1.000000 0.000000
vn 1.000000 0.000000 0.000000
vn 1.000000 0.000000 0.000000
vn 1.000000 0.000000 0.000000
vn 1.000000 0.000000 0.000000
vn -1.000000 0.000000 0.000000
vn -1.000000 0.000000 0.000000
vn -1.000000 0.000000 0.000000
vn -1.000000 0.000000 0.000000
vn 0.000000 1.000000 -0.000000
vn 0.000000 1.000000 -0.000000
vn 0.000000 1.000000 -0.000000
vn 0.000000 1.000000 -0.000000
vn 0.000000 1.000000 0.000000
vn 0.000000 1.000000 0.000000
vn 0.000000 1.000000 0.000000
vn 0.000000 1.000000 0.000000
vn 0.000000 -0.113364 0.993554
vn 0.000000 -0.113364 0.993554
vn 0.000000 -0.113364 0.993554
vn 0.000000 -0.113364 0.993554
vn 1.000000 -0.000000 0.000000
vn 1.000000 -0.000000 0.000000
vn 1.000000 -0.000000 0.000000
vn 1.000000 -0.000000 0.000000
vn 0.000000 -0.113364 -0.993554
vn 0.000000 -0.113364 -0.993554
vn 0.000000 -0.113364 -0.993554
vn 0.000000 -0.113364 -0.993554
vn -1.000000 0.000000 0.000000
vn -1.000000 0.000000 0.000000
vn -1.000000 0.000000 0.000000
vn -1.000000 0.000000 0.000000
vn 0.000000 -1.000000 0.000000
vn 0.000000 -1.000000 0.000000
vn 0.000000 -1.000000 0.000000
vn 0.000000 -1.000000 0.000000
vn 0.000000 -1.000000 0.000000
vn 0.000000 -1.000000 0.000000
vn 0.000000 -1.000000 0.000000
vn 0.000000 -1.000000 0.000000
vn 0.000000 0.000000 1.000000
vn 0.000000 0.000000 1.000000
vn 0.000000 0.000000 1.000000
vn 0.000000 0.000000 1.000000
vn 1.000000 0.000000 0.000000
vn 1.000000 0.000000 0.000000
vn 1.000000 0.000000 0.000000
vn 1.000000 -0.000000 0.000000
vn 0.000000 0.000000 -1.000000
vn 0.000000 0.000000 -1.000000
vn 0.000000 0.000000 -1.000000
vn 0.000000 0.000000 -1.000000
vn -1.000000 0.000000 0.000000
vn -1.000000 0.000000 0.000000
vn -1.000000 0.000000 0.000000
vn -1.000000 0.000000 0.000000
vn 0.000000 0.671100 0.741367
vn 0.000000 0.671100 0.741367
vn 0.000000 0.671100 0.741367
vn 0.000000 0.671100 0.741367
vn 1.000000 0.000000 0.000000
vn 1.000000 0.000000 0.000000
vn 1.000000 0.000000 0.000000
vn 0.000000 0.701819 -0.712355
vn 0.000000 0.701819 -0.712355
vn 0.000000 0.701820 -0.712355
vn 0.000000 0.701820 -0.712355
vn -1.000000 0.000000 0.000000
vn 0.000000 0.000000 0.000000
vn 0.000000 0.000000 0.000000
vn 0.000000 0.000000 0.000000
vn 0.000000 0.000000 0.000000
vn -0.000000 0.000000 0.000000
vn -1.000000 0.000000 0.000000
vn -1.000000 0.000000 0.000000
vn -0.000000 0.000000 0.000000
vn 1.000000 0.000000 0.000000
vn 0.000000 0.000000 0.000000
vn 0.000000 0.000000 0.000000
vn 1.000000 0.000000 0.000000
vn 0.000000 0.000000 0.000000
vn 0.000000 0.000000 0.000000
vn 0.000000 0.000000 0.000000
vn 0.000000 0.000000 0.000000
vn 0.000000 0.000000 0.000000
vn 1.000000 0.000000 0.000000
vn 1.000000 0.000000 0.000000
vn 0.000000 0.000000 0.000000
vn -1.000000 0.000000 0.000000
vn -0.000000 0.000000 0.000000
vn -0.000000 0.000000 0.000000
vn -1.000000 0.000000 0.000000
vn -0.009544 0.696471 0.717522
vn 0.009544 0.696471 0.717522
vn 0.011904 0.696293 0.717659
vn -0.011904 0.696293 0.717659
vn 0.006720 0.995405 -0.095518
vn 0.009872 0.999701 -0.022389
vn -0.006720 0.995405 -0.095518
vn -0.009871 0.999701 -0.022389
vn 0.000000 0.000000 0.000000
vn 0.000000 0.000000 0.000000
vn 0.000000 0.000000 0.000000
vn 0.000000 0.000000 0.000000
vn -0.000000 -0.000000 -0.000000
vn -0.635553 -0.538239 -0.553508
vn -0.635553 -0.538239 -0.553508
vn -0.000000 -0.000000 -0.000000
vn 0.635499 -0.538279 -0.553532
vn 0.000000 -0.000000 -0.000000
vn 0.000000 -0.000000 -0.000000
vn 0.635499 -0.538279 -0.553532
vn -0.010650 0.697960 -0.716058
vn 0.010651 0.697960 -0.716058
vn 0.008102 0.697773 -0.716273
vn -0.008101 0.697773 -0.716273
vn 0.000000 0.000000 0.000000
vn 0.000000 0.000000 0.000000
vn 0.000000 0.000000 0.000000
vn 0.000000 0.000000 0.000000
vn -0.000000 0.000000 -0.000000
vn -0.474789 0.613570 -0.630957
vn -0.474789 0.613570 -0.630957
vn -0.000000 0.000000 -0.000000
vn 0.474736 0.613580 -0.630988
vn 0.000000 0.000000 -0.000000
vn 0.000000 0.000000 -0.000000
vn 0.474736 0.613580 -0.630988
vn 0.000000 0.716922 0.697153
vn 0.000000 0.716922 0.697153
vn 0.000000 0.716922 0.697153
vn 0.000000 0.716922 0.697153
vn 0.999938 -0.006864 0.008790
vn 0.999938 -0.006864 0.008790
vn 0.999938 -0.006864 0.008790
vn 0.999938 -0.006864 0.008790
vn -0.999938 -0.006865 0.008791
vn -0.999938 -0.006865 0.008791
vn -0.999938 -0.006865 0.008791
vn -0.999938 -0.006865 0.008791
vn 0.000000 0.716930 -0.697145
vn 0.000000 0.716930 -0.697145
vn 0.000000 0.716930 -0.697145
vn 0.000000 0.716930 -0.697145
vn -0.996737 0.047864 0.065002
vn -0.996737 0.047864 0.065002
vn -0.996737 0.047864 0.065002
vn -0.996737 0.047864 0.065002
vn 0.996737 0.047865 0.065002
vn 0.996737 0.047865 0.065002
vn 0.996737 0.047865 0.065002
vn 0.996736 0.047865 0.065002
vn -0.988055 0.053842 0.144389
vn -0.988055 0.053842 0.144389
vn -0.988055 0.053842 0.144389
vn -0.988055 0.053842 0.144389
vn 0.988056 0.053835 0.144388
vn 0.988056 0.053835 0.144388
vn 0.988056 0.053835 0.144388
vn 0.988056 0.053835 0.144388
vn 1.000000 0.000000 0.000000
vn 1.000000 0.000000 0.000000
vn 1.000000 -0.000000 0.000000
vn 1.000000 -0.000000 0.000000
vn 0.000000 1.000000 0.000000
vn 0.000000 1.000000 0.000000
vn 0.000000 1.000000 0.000000
vn 0.000000 1.000000 0.000000
vn 0.000000 -0.696267 0.717783
vn 0.000000 -0.696267 0.717783
vn 0.000000 -0.696267 0.717783
vn 0.000000 -0.696267 0.717783
vn 0.000000 -0.696267 -0.717783
vn 0.000000 -0.696267 -0.717783
vn 0.000000 -0.696267 -0.717783
vn 0.000000 -0.696267 -0.717783
vn 1.000000 0.000000 0.000000
vn 1.000000 0.000000 0.000000
vn 1.000000 0.000000 0.000000
vn 1.000000 0.000000 0.000000
vn 1.000000 0.000000 0.000000
vn 1.000000 0.000000 0.000000
vn 1.000000 0.000000 0.000000
vn 1.000000 0.000000 0.000000
vn 1.000000 0.000000 0.000000
vn -0.021466 0.999770 0.000000
vn -0.021466 0.999770 0.000000
vn -0.021466 0.999770 0.000000
vn -0.021466 0.999770 0.000000
vn -0.038789 0.107112 0.993490
vn -0.038789 0.107112 0.993490
vn -0.038789 0.107112 0.993490
vn -0.038789 0.107112 0.993490
vn -0.038789 0.107112 -0.993490
vn -0.038789 0.107112 -0.993490
vn -0.038789 0.107112 -0.993490
vn -0.038789 0.107112 -0.993490
vn 0.000093 0.937090 0.349089
vn 0.000093 0.937090 0.349089
vn 0.000093 0.937090 0.349089
vn 0.000093 0.937090 0.349089
vn 0.000000 -0.000000 0.000000
vn 0.000000 -0.000000 0.000000
vn 0.000000 -0.000000 0.000000
vn 0.000000 -0.000000 0.000000
s off
g pCube9 Crypt
usemtl lambert7SG
f 1/1/1 2/2/2 4/4/3 3/3/4
f 5/5/5 6/6/6 8/8/7 7/7/8
f 7/7/9 8/8/10 2/2/11 1/1/12
f 2/2/13 8/8/14 6/6/15 4/4/16
f 7/7/17 1/1/18 3/3/19 5/5/20
s 1
f 3/3/21 4/4/22 10/86/23 9/88/24
f 4/4/22 6/6/25 11/90/26 10/86/23
f 6/6/25 5/5/27 12/89/28 11/90/26
f 5/5/27 3/3/21 9/88/24 12/89/28
s off
usemtl lambert5SG
f 9/9/29 10/87/30 14/83/31 13/110/32
usemtl lambert8SG
f 63/63/33 64/103/34 65/95/35 66/92/36
usemtl lambert5SG
f 11/85/37 12/12/38 16/111/39 15/108/40
f 12/12/41 9/9/42 13/110/43 16/111/44
s 2
usemtl lambert6SG
f 13/13/45 14/109/46 18/82/47 17/79/48
f 14/109/46 15/84/49 19/81/50 18/82/47
f 15/84/49 16/16/51 20/80/52 19/81/50
f 16/16/51 13/13/45 17/79/48 20/80/52
s off
f 17/17/53 18/18/54 22/22/55 21/21/56
s 3
f 18/18/57 19/19/58 23/23/59 22/22/60
s off
f 19/19/61 20/20/62 24/24/63 23/23/64
s 4
f 20/20/65 17/17/66 21/21/67 24/24/68
s off
f 51/51/69 52/52/70 50/50/71 49/49/72
f 56/56/73 57/57/74 58/58/75
f 48/47/76 47/48/77 49/49/78 50/50/79
s 4
f 24/24/68 21/21/67 25/25/80
s off
f 21/21/81 22/22/82 28/28/83 27/27/84
f 22/22/85 26/26/86 29/29/87 28/28/88
f 25/25/89 21/21/90 27/27/91 30/30/92
f 23/23/93 24/24/94 31/32/95 32/31/96
f 24/24/97 25/25/98 30/30/99 31/32/100
f 26/26/101 23/23/102 32/31/103 29/29/104
s 5
f 27/27/105 28/28/106 34/78/107 33/77/108
f 28/28/106 29/29/109 35/35/110 34/78/107
f 30/30/111 27/27/105 33/77/108 36/76/112
s off
f 33/33/113 34/34/114 38/38/115 37/37/116
f 34/34/117 35/73/118 39/39/119 38/38/120
f 36/36/121 33/33/122 37/37/123 40/40/124
s 5
f 32/31/125 31/32/126 41/42/127 42/41/128
f 31/32/126 30/30/111 36/76/112 41/42/127
f 29/29/109 32/31/125 42/41/128 35/35/110
s off
f 42/41/129 41/42/130 43/74/131 44/71/132
f 41/42/133 36/76/134 45/75/135 43/74/136
f 35/35/137 42/41/138 44/71/139 46/72/140
f 44/43/141 43/44/142 47/48/143 48/47/144
f 43/44/145 45/45/146 49/49/147 47/48/148
f 46/46/149 44/43/150 48/47/151 50/50/152
f 37/37/153 38/38/154 52/52/155 51/51/156
f 38/38/157 39/39/158 50/50/159 52/52/160
f 40/40/161 37/37/162 51/51/163 49/49/164
f 39/39/165 35/73/166 46/46/167 50/50/168
f 40/40/169 49/49/170 45/45/171 36/36/172
s 3
f 22/22/60 23/23/59 54/54/173 53/53/174
f 23/23/59 26/26/175 55/55/176 54/54/173
f 26/26/175 22/22/60 53/53/174 55/55/176
s off
f 53/53/177 54/54/178 57/57/179 56/56/180
f 54/54/181 55/55/182 58/58/183 57/57/184
f 55/55/185 53/53/186 56/56/187 58/58/188
s 6
usemtl lambert5SG
f 10/10/189 11/11/190 60/104/191 59/106/192
f 11/11/190 15/15/193 61/61/194 60/104/191
f 15/15/193 14/14/195 67/67/196
f 14/14/195 10/10/189 59/106/192 62/101/197
s off
f 59/59/198 60/105/199 64/102/200 63/99/201
f 60/60/202 61/97/203 65/94/204 64/64/205
f 62/62/206 59/107/207 63/100/208 66/93/209
s 6
f 67/67/196 14/14/195 62/101/197
f 15/15/193 67/67/196 61/61/194
s off
f 65/65/210 61/98/211 68/68/212 69/69/213
f 66/66/214 65/96/215 69/91/216 70/70/217
