# This file uses centimeters as units for non-parametric coordinates.

mtllib TV_Monitor.mtl
g default
v -1.789466 3.550610 -0.072163
v -1.783970 4.513028 -0.092952
v -1.614614 4.512959 -1.132890
v -1.609099 3.550650 -1.153749
v -1.616974 3.613733 -1.123966
v -1.619764 3.671257 -1.113416
v -1.620503 3.653670 -1.108762
v -1.622524 3.640795 -1.096047
v -1.625284 3.636082 -1.078677
v -1.701080 3.671257 -1.126337
v -1.706600 3.636082 -1.091598
v -1.703840 3.640795 -1.108967
v -1.701819 3.653670 -1.121682
v -1.781589 3.613711 -0.101954
v -1.773277 3.636082 -0.147257
v -1.776037 3.640795 -0.129886
v -1.778057 3.653670 -0.117172
v -1.778797 3.671257 -0.112516
v -1.860113 3.671257 -0.125436
v -1.859373 3.653670 -0.130092
v -1.857353 3.640795 -0.142807
v -1.854593 3.636082 -0.160177
v -1.625284 4.498368 -1.078677
v -1.622524 4.493656 -1.096047
v -1.620503 4.480781 -1.108762
v -1.619764 4.463193 -1.113416
v -1.706600 4.498368 -1.091598
v -1.701080 4.463193 -1.126337
v -1.701819 4.480781 -1.121682
v -1.703840 4.493656 -1.108967
v -1.778797 4.463193 -0.112516
v -1.778057 4.480781 -0.117172
v -1.776037 4.493656 -0.129886
v -1.773277 4.498368 -0.147257
v -1.860113 4.463193 -0.125436
v -1.854593 4.498368 -0.160177
v -1.857353 4.493656 -0.142807
v -1.859373 4.480781 -0.130092
v -2.769933 3.580449 -0.214169
v -2.775523 3.580659 -0.216740
v -2.779078 3.581232 -0.221762
v -2.779646 3.582014 -0.227888
v -2.779646 4.463593 -0.227888
v -2.779078 4.464375 -0.221762
v -2.775523 4.464947 -0.216740
v -2.769933 4.465158 -0.214169
v -1.792570 3.570845 -0.059724
v -1.795710 3.575703 -0.053844
v -1.800860 3.579192 -0.050115
v -1.806806 3.580449 -0.049471
v -1.806807 4.465158 -0.049471
v -1.800867 4.466192 -0.050100
v -1.795737 4.469062 -0.053783
v -1.792624 4.473063 -0.059607
v -2.756139 4.546998 -0.294839
v -2.761961 4.545405 -0.296047
v -2.766153 4.541054 -0.297346
v -2.767591 4.535111 -0.298384
v -2.602353 4.535111 -1.264665
v -2.600651 4.541054 -1.265168
v -2.596266 4.545405 -1.264999
v -2.590373 4.546998 -1.264203
v -1.782688 4.537135 -0.118026
v -1.784179 4.542128 -0.123519
v -1.788834 4.545702 -0.128066
v -1.795540 4.546998 -0.130571
v -1.631582 4.546998 -1.100246
v -1.624015 4.545443 -1.100575
v -1.618173 4.541246 -1.103959
v -1.615803 4.535648 -1.109399
v -2.576579 4.465158 -1.344872
v -2.582705 4.464947 -1.344304
v -2.587727 4.464375 -1.340749
v -2.590297 4.463593 -1.335159
v -2.590297 3.582014 -1.335159
v -2.587727 3.581232 -1.340749
v -2.582705 3.580659 -1.344304
v -2.576579 3.580449 -1.344872
v -1.606384 4.472668 -1.164873
v -1.606144 4.468965 -1.171779
v -1.609150 4.466191 -1.177499
v -1.614456 4.465158 -1.180345
v -1.614440 3.580449 -1.180342
v -1.609156 3.579174 -1.177470
v -1.606185 3.575752 -1.171679
v -1.606475 3.571180 -1.164672
v -2.767591 3.510495 -0.298384
v -2.766153 3.504553 -0.297346
v -2.761961 3.500202 -0.296047
v -2.756139 3.498610 -0.294839
v -2.590373 3.498610 -1.264203
v -2.596266 3.500202 -1.264999
v -2.600651 3.504553 -1.265168
v -2.602353 3.510495 -1.264665
v -1.796197 3.498610 -0.130684
v -1.789337 3.499959 -0.128022
v -1.784739 3.503660 -0.123153
v -1.783588 3.508754 -0.117334
v -1.614903 3.509265 -1.109136
v -1.617627 3.503962 -1.103757
v -1.623567 3.500048 -1.100460
v -1.631071 3.498610 -1.100159
v -2.768085 3.539530 -0.224977
v -2.773703 3.540354 -0.227386
v -2.777333 3.542606 -0.231964
v -2.778005 3.545682 -0.237485
v -1.805327 3.539530 -0.060342
v -1.799230 3.540450 -0.060506
v -1.794115 3.543001 -0.062978
v -1.791147 3.546600 -0.067191
v -2.763036 3.509574 -0.254504
v -2.768755 3.511002 -0.256319
v -2.772664 3.514902 -0.259272
v -2.773715 3.520231 -0.262572
v -1.800783 3.509574 -0.089953
v -1.794784 3.511364 -0.088588
v -1.790338 3.516307 -0.086890
v -1.788519 3.523179 -0.085276
v -2.763036 4.536033 -0.254504
v -2.768755 4.534605 -0.256319
v -2.772664 4.530705 -0.259272
v -2.773715 4.525376 -0.262572
v -1.800197 4.536033 -0.089853
v -1.794192 4.534682 -0.089171
v -1.789363 4.530924 -0.089305
v -1.786741 4.525551 -0.090228
v -2.768085 4.506075 -0.224977
v -2.773703 4.505251 -0.227386
v -2.777333 4.502999 -0.231964
v -2.778005 4.499923 -0.237485
v -1.806078 4.506075 -0.060469
v -1.799503 4.506409 -0.061084
v -1.793836 4.507334 -0.064941
v -1.790378 4.508634 -0.071132
v -2.578427 4.506075 -1.334065
v -2.584525 4.505251 -1.333659
v -2.589471 4.502999 -1.330548
v -2.591939 4.499923 -1.325564
v -1.617839 4.506075 -1.169800
v -1.611859 4.505920 -1.166783
v -1.608420 4.505507 -1.160838
v -1.608605 4.504959 -1.153806
v -2.583476 4.536033 -1.304537
v -2.589473 4.534605 -1.304727
v -2.594141 4.530705 -1.303241
v -2.596229 4.525376 -1.300477
v -1.622940 4.536033 -1.140282
v -1.616819 4.534208 -1.138764
v -1.612868 4.529337 -1.136827
v -1.612385 4.523018 -1.135111
v -2.583476 3.509574 -1.304538
v -2.589473 3.511002 -1.304727
v -2.594141 3.514902 -1.303241
v -2.596229 3.520231 -1.300477
v -1.622786 3.509574 -1.140256
v -1.616279 3.511674 -1.139452
v -1.611567 3.517360 -1.139483
v -1.610019 3.525009 -1.140344
v -2.578427 3.539530 -1.334065
v -2.584525 3.540354 -1.333659
v -2.589471 3.542606 -1.330548
v -2.591939 3.545682 -1.325564
v -1.617227 3.539530 -1.169695
v -1.611417 3.540605 -1.167294
v -1.607877 3.543500 -1.162899
v -1.607704 3.547313 -1.157879
vt 0.512250 0.035026
vt 0.499162 0.521788
vt 0.282207 0.042779
vt 0.269376 0.504307
vt 0.520118 0.230193
vt 0.483104 0.716014
vt 0.289431 0.237077
vt 0.253318 0.698534
vt 0.257313 0.433935
vt 0.523128 0.029737
vt 0.259549 0.199066
vt 0.279703 0.029206
vt 0.255416 0.633217
vt 0.253181 0.868086
vt 0.240290 0.186024
vt 0.238054 0.420892
vt 0.236156 0.620175
vt 0.233921 0.855042
vt 0.519424 0.039144
vt 0.516395 0.036124
vt 0.238012 0.425178
vt 0.237972 0.429464
vt 0.286373 0.035612
vt 0.283332 0.038637
vt 0.240249 0.190310
vt 0.240209 0.194596
vt 0.515900 0.237326
vt 0.518959 0.234312
vt 0.236116 0.624461
vt 0.236075 0.628747
vt 0.282327 0.233032
vt 0.285336 0.236002
vt 0.233880 0.859329
vt 0.233840 0.863615
vt 0.512132 0.262363
vt 0.001961 0.292106
vt 0.232664 0.499627
vt 0.002739 0.530297
vt 0.232482 0.761062
vt 0.003592 0.791728
vt 0.230797 0.000005
vt 0.001107 0.030674
vt 0.231126 0.261439
vt 0.519733 0.005172
vt 0.269465 0.019095
vt 0.282319 0.246230
vt 0.532634 0.232641
vt 0.001928 0.282134
vt 0.231984 0.291355
vt 0.001896 0.272161
vt 0.231864 0.281383
vt 0.001863 0.262188
vt 0.231710 0.271411
vt 0.002706 0.520324
vt 0.232158 0.529547
vt 0.002673 0.510350
vt 0.232661 0.519573
vt 0.002641 0.500378
vt 0.232430 0.509600
vt 0.003560 0.781756
vt 0.233376 0.790978
vt 0.003527 0.771783
vt 0.232977 0.781007
vt 0.003495 0.761810
vt 0.232932 0.771034
vt 0.001074 0.020702
vt 0.230217 0.029926
vt 0.001042 0.010729
vt 0.230516 0.019952
vt 0.004272 1.000000
vt 0.230605 0.009979
vt 0.271318 0.013391
vt 0.275564 0.007931
vt 0.272526 0.014370
vt 0.283050 0.004534
vt 0.275827 0.243517
vt 0.271300 0.239631
vt 0.276600 0.240544
vt 0.268313 0.231403
vt 0.529772 0.240202
vt 0.525225 0.244402
vt 0.524640 0.241968
vt 0.519118 0.247300
vt 0.528491 0.279494
vt 0.524761 0.487027
vt 0.507615 0.503546
vt 0.276708 0.499303
vt 0.260349 0.482173
vt 0.264079 0.274639
vt 0.527089 0.008791
vt 0.531292 0.013985
vt 0.530290 0.014812
vt 0.533043 0.019628
vt 0.281225 0.258121
vt 0.526347 0.270928
vt 0.520576 0.264866
vt 0.516097 0.501295
vt 0.522194 0.495418
vt 0.262493 0.490738
vt 0.268264 0.496801
vt 0.272743 0.260371
vt 0.266646 0.266248
vt 0.531396 0.279187
vt 0.529944 0.279332
vt 0.526206 0.487262
vt 0.527650 0.487478
vt 0.267888 0.020182
vt 0.266384 0.020930
vt 0.265275 0.229887
vt 0.266761 0.230502
vt 0.507958 0.506450
vt 0.507795 0.504998
vt 0.276492 0.500749
vt 0.276295 0.502194
vt 0.283477 0.247540
vt 0.284256 0.249060
vt 0.516824 0.250224
vt 0.517777 0.248653
vt 0.257444 0.482479
vt 0.258896 0.482335
vt 0.262634 0.274405
vt 0.261190 0.274188
vt 0.534264 0.231797
vt 0.535789 0.231197
vt 0.536226 0.021417
vt 0.534693 0.020667
vt 0.512347 0.260918
vt 0.512545 0.259473
vt 0.280882 0.255217
vt 0.281044 0.256668
vt 0.285181 0.001703
vt 0.284312 0.003236
vt 0.518410 0.003851
vt 0.517491 0.002294
vt 0.528918 0.269487
vt 0.527641 0.270206
vt 0.268964 0.011587
vt 0.270157 0.012465
vt 0.522129 0.262356
vt 0.521351 0.263605
vt 0.275717 0.004623
vt 0.275805 0.006238
vt 0.517573 0.503845
vt 0.516838 0.502577
vt 0.274914 0.246238
vt 0.275436 0.244885
vt 0.524687 0.496991
vt 0.523446 0.496204
vt 0.268032 0.239587
vt 0.269639 0.239436
vt 0.259921 0.492179
vt 0.261198 0.491460
vt 0.532978 0.240752
vt 0.531408 0.240379
vt 0.266710 0.499310
vt 0.267488 0.498062
vt 0.526069 0.247405
vt 0.525585 0.245919
vt 0.271267 0.257822
vt 0.272001 0.259089
vt 0.526915 0.005214
vt 0.526834 0.006958
vt 0.264153 0.264674
vt 0.265394 0.265462
vt 0.533646 0.012127
vt 0.532443 0.013038
vt 0.537641 0.021625
vt 0.234060 0.999250
vt 0.259749 0.274006
vt 0.001009 0.000756
vt 0.527453 0.003684
vt 0.534915 0.011282
vt 0.262928 0.263894
vt 0.270547 0.256580
vt 0.534403 0.241423
vt 0.526744 0.248819
vt 0.265938 0.500540
vt 0.258672 0.492884
vt 0.274243 0.247546
vt 0.266591 0.240158
vt 0.525912 0.497772
vt 0.518292 0.505086
vt 0.267735 0.010778
vt 0.275215 0.003205
vt 0.522901 0.261126
vt 0.530167 0.268782
vt 0.517243 0.000533
vt 0.285413 -0.000022
vt 0.280754 0.253769
vt 0.512708 0.258030
vt 0.537205 0.231047
vt 0.255995 0.482589
vt 0.516551 0.252005
vt 0.284445 0.250742
vt 0.276132 0.503637
vt 0.508085 0.507898
vt 0.263871 0.229735
vt 0.264976 0.021126
vt 0.529091 0.487660
vt 0.532845 0.279077
vt 0.242064 -0.000401
vt 0.233799 0.867901
vt 0.254262 0.702715
vt 0.253222 0.863799
vt 0.261446 -0.000216
vt 0.281203 0.228960
vt 0.257169 0.705865
vt 0.253263 0.859514
vt 0.261262 0.707139
vt 0.253303 0.855227
vt 0.236034 0.633033
vt 0.487286 0.715071
vt 0.255457 0.628931
vt 0.511752 0.238423
vt 0.490435 0.712164
vt 0.255498 0.624645
vt 0.491709 0.708071
vt 0.255539 0.620359
vt 0.240167 0.198882
vt 0.265195 0.505250
vt 0.259590 0.194780
vt 0.290517 0.034515
vt 0.262045 0.508158
vt 0.259632 0.190494
vt 0.260771 0.512250
vt 0.259672 0.186208
vt 0.237931 0.433750
vt 0.498219 0.517606
vt 0.257354 0.429648
vt 0.520525 0.043276
vt 0.495312 0.514457
vt 0.257394 0.425362
vt 0.491219 0.513182
vt 0.257436 0.421076
vn 0.000770 0.999988 -0.004847
vn 0.000770 0.999988 -0.004847
vn -0.000770 0.999988 0.004845
vn -0.000770 0.999988 0.004845
vn -0.156924 0.005822 0.987594
vn -0.156924 0.005822 0.987594
vn -0.156924 -0.005822 0.987594
vn -0.156924 -0.005822 0.987594
vn -0.000770 -0.999988 0.004844
vn -0.000770 -0.999988 0.004844
vn 0.000770 -0.999988 -0.004844
vn 0.000770 -0.999988 -0.004844
vn 0.156920 -0.005823 -0.987594
vn 0.156920 -0.005823 -0.987594
vn 0.156920 0.005823 -0.987594
vn 0.156920 0.005823 -0.987594
vn -0.078466 0.866011 0.493830
vn -0.078466 0.866012 0.493828
vn -0.135900 0.500005 0.855293
vn -0.135900 0.500006 0.855292
vn 0.151572 0.258897 -0.953938
vn 0.151572 0.258897 -0.953938
vn 0.110968 0.707101 -0.698351
vn 0.078468 0.866015 -0.493823
vn 0.078467 0.866017 -0.493819
vn 0.110968 0.707101 -0.698351
vn -0.135901 -0.499999 0.855297
vn -0.135901 -0.500000 0.855296
vn -0.078462 -0.866026 0.493805
vn -0.078462 -0.866027 0.493803
vn 0.078464 -0.866028 -0.493801
vn 0.078463 -0.866030 -0.493797
vn 0.110969 -0.707082 -0.698371
vn 0.110969 -0.707082 -0.698371
vn 0.151575 -0.258903 -0.953936
vn 0.151575 -0.258903 -0.953936
vn 0.982015 -0.000030 0.188802
vn 0.967956 0.000053 0.251121
vn 0.981853 0.014790 0.189068
vn 0.985027 0.026212 0.170399
vn 0.986696 -0.000062 0.162577
vn 0.981826 -0.000080 0.189785
vn 0.986696 -0.000100 0.162577
vn 0.985028 -0.026220 0.170388
vn 0.981851 -0.014790 0.189077
vn 0.967595 -0.000039 0.252508
vn 0.977171 0.000277 0.212455
vn 0.986842 0.002237 0.161672
vn 0.981756 -0.054712 0.182103
vn 0.978330 -0.024923 0.205544
vn 0.967959 0.000021 0.251110
vn 0.976719 0.001865 0.214515
vn 0.967598 -0.000008 0.252497
vn 0.978314 0.024967 0.205618
vn 0.981745 0.054812 0.182135
vn 0.986842 0.002404 0.161673
vn 0.987611 -0.000000 0.156921
vn 0.987611 -0.000000 0.156921
vn 0.987611 -0.000000 0.156921
vn 0.987611 -0.000000 0.156921
vn 0.987611 -0.000000 0.156921
vn 0.987611 -0.000000 0.156921
vn 0.987611 -0.000000 0.156921
vn 0.987611 -0.000000 0.156921
vn 0.987611 -0.000000 0.156921
vn 0.987611 -0.000000 0.156921
vn 0.987611 -0.000000 0.156921
vn 0.987611 -0.000000 0.156921
vn 0.987611 -0.000000 0.156921
vn 0.987611 -0.000000 0.156921
vn 0.987611 -0.000000 0.156921
vn 0.987611 -0.000000 0.156921
vn -0.985818 -0.000008 -0.167817
vn -0.931231 -0.005846 0.364383
vn -0.995757 0.002822 0.091983
vn -0.985818 0.000008 -0.167817
vn -0.630562 -0.010141 0.776073
vn -0.630559 0.010140 0.776075
vn -0.816589 0.008095 0.577163
vn -0.170108 -0.011842 0.985354
vn -0.170108 0.011837 0.985354
vn -0.166726 -0.011760 0.985933
vn 0.408528 -0.008312 0.912708
vn 0.401915 0.009295 0.915630
vn -0.166754 0.011634 0.985930
vn 0.800676 -0.005928 0.599068
vn 0.794099 0.007051 0.607747
vn 0.964814 -0.000367 0.262935
vn 0.964340 0.000483 0.264665
vn -0.985693 0.000831 -0.168550
vn -0.845121 0.516142 -0.139169
vn -0.843337 0.516149 -0.149577
vn -0.985690 0.000832 -0.168566
vn -0.698688 0.706595 -0.112064
vn -0.696223 0.706596 -0.126476
vn -0.257143 0.965791 -0.033557
vn -0.003377 0.999941 0.010303
vn 0.000235 0.999942 -0.010818
vn -0.253681 0.965791 -0.053796
vn -0.000286 0.999938 0.011164
vn 0.422537 0.902923 0.078686
vn 0.430053 0.900470 0.064873
vn 0.003445 0.999939 -0.010507
vn 0.836381 0.527868 0.147722
vn 0.592357 0.801503 0.081888
vn 0.986486 0.020629 0.162541
vn 0.986715 0.018665 0.161386
vn 0.928034 0.338408 0.155671
vn -0.985565 0.000008 -0.169298
vn -0.757274 0.005846 -0.653071
vn -0.757274 -0.005845 -0.653071
vn -0.985565 -0.000008 -0.169298
vn -0.336863 0.010139 -0.941499
vn -0.578402 -0.008093 -0.815712
vn 0.166980 0.011835 -0.985889
vn 0.166980 -0.011839 -0.985889
vn -0.092714 -0.011360 -0.995628
vn 0.170667 0.011562 -0.985261
vn 0.473382 0.015632 -0.880719
vn 0.472289 -0.015426 -0.881309
vn 0.170701 -0.011660 -0.985254
vn 0.886899 0.004072 -0.461945
vn 0.989213 0.005980 -0.146363
vn 0.990947 -0.005067 -0.134156
vn 0.886771 -0.003089 -0.462198
vn 0.971023 0.000266 0.238986
vn 0.970588 -0.000109 0.240747
vn -0.003376 -0.999941 0.010297
vn -0.485230 -0.871277 -0.073684
vn -0.482152 -0.871271 -0.091748
vn 0.000235 -0.999941 -0.010822
vn -0.698660 -0.706622 -0.112070
vn -0.843322 -0.516174 -0.149576
vn -0.952617 -0.258497 -0.160316
vn -0.985693 -0.000831 -0.168550
vn -0.985690 -0.000832 -0.168566
vn 0.986635 -0.005403 0.162856
vn 0.922945 -0.351050 0.157913
vn 0.923456 -0.350455 0.156235
vn 0.986705 -0.005166 0.162442
vn 0.570165 -0.813377 0.115452
vn 0.415019 -0.906440 0.078261
vn 0.419493 -0.905549 0.063304
vn 0.579995 -0.810840 0.078385
vn -0.000306 -0.999938 0.011159
vn 0.003404 -0.999940 -0.010469
vn 0.984046 -0.000149 0.177917
vn 0.984298 0.000008 0.176515
vn -0.147548 -0.499939 0.853399
vn -0.144867 -0.498460 0.854723
vn -0.085877 -0.865927 0.492744
vn -0.083824 -0.863169 0.497908
vn -0.085866 0.865965 0.492678
vn -0.083559 0.864567 0.495522
vn -0.147546 0.499982 0.853375
vn -0.144812 0.499359 0.854207
vn 0.144414 0.499911 -0.853952
vn 0.147843 0.497115 -0.854997
vn 0.082729 0.865948 -0.493244
vn 0.086321 0.864180 -0.495724
vn 0.082727 -0.865959 -0.493226
vn 0.086286 -0.864158 -0.495767
vn 0.144415 -0.499913 -0.853951
vn 0.147702 -0.497474 -0.854812
vn 0.890038 -0.150611 0.430289
vn 0.947628 -0.159575 0.276654
vn 0.900578 0.287096 0.326399
vn 0.915074 0.133960 0.380388
vn 0.984239 0.026078 0.174911
vn 0.989572 0.029978 0.140888
vn -0.985698 -0.000062 -0.168523
vn -0.985702 -0.000035 -0.168497
vn -0.985702 0.000035 -0.168497
vn -0.985698 0.000062 -0.168523
vn -0.985686 0.000062 -0.168593
vn -0.985681 0.000035 -0.168619
vn -0.985681 -0.000035 -0.168619
vn -0.985686 -0.000062 -0.168593
vn 0.993669 -0.049256 0.100977
vn 0.996727 -0.050890 0.062812
vn -0.915039 -0.262158 0.306557
vn -0.404166 -0.481531 0.777674
vn -0.810480 -0.346364 0.472391
vn 0.648880 0.343702 0.678840
vn 0.258344 0.448929 0.855407
vn -0.975219 0.217483 -0.040614
vn -0.555499 0.755739 0.346812
vn -0.767334 0.602267 0.220165
vn 0.981784 0.180530 0.059232
vn 0.494910 0.787438 -0.367430
vn 0.734812 0.622602 -0.269107
vn -0.761169 0.262164 -0.593204
vn -0.354707 0.435463 -0.827378
vn 0.994816 -0.101272 -0.009244
vn 0.579304 -0.453042 -0.677614
vn 0.800639 -0.347441 -0.488120
vn -0.793913 -0.456423 -0.401721
vn -0.182280 -0.834686 -0.519686
vn -0.650593 -0.602252 -0.462625
vn 0.666724 -0.564600 0.486524
vn 0.298192 -0.809797 0.505282
vn -0.975217 -0.217490 -0.040615
vn -0.555500 -0.755751 0.346787
vn -0.767341 -0.602264 0.220152
vn 0.650821 -0.321984 0.687574
vn 0.263196 -0.462196 0.846819
vn -0.990917 0.124333 0.051240
vn -0.609483 0.435484 0.662483
vn -0.810465 0.346383 0.472404
vn 0.613084 0.628426 0.478757
vn 0.257448 0.820087 0.511056
vn -0.793908 0.456421 -0.401733
vn -0.408674 0.755731 -0.511719
vn 0.996526 0.077681 0.030030
vn 0.827032 0.314841 -0.465719
vn 0.812450 0.384601 -0.438186
vn 0.399002 0.506292 -0.764504
vn -0.761169 -0.262168 -0.593203
vn -0.122789 -0.481524 -0.867789
vn -0.607442 -0.346363 -0.714876
vn 0.963411 -0.267661 0.014036
vn 0.482075 -0.793562 -0.371298
vn 0.723023 -0.610238 -0.323802
s 1
g TVMonitor1 GamingSetup
usemtl standardSurface6SG
f 22/219/1 15/11/2 9/234/3 11/16/4
f 10/227/5 6/9/6 26/218/7 28/17/8
f 27/211/9 23/13/10 34/210/11 36/18/12
s 4
f 35/201/13 31/205/14 18/226/15 19/15/16
s 1
f 9/234/3 8/232/17 12/21/18 11/16/4
f 8/232/17 7/229/19 13/22/20 12/21/18
f 7/229/19 6/9/6 10/227/5 13/22/20
s 4
f 18/226/15 17/224/21 20/25/22 19/15/16
s 1
f 17/224/23 16/221/24 21/26/25 20/25/26
f 16/221/24 15/11/2 22/219/1 21/26/25
f 26/218/7 25/216/27 29/29/28 28/17/8
f 25/216/27 24/213/29 30/30/30 29/29/28
f 24/213/29 23/13/10 27/211/9 30/30/30
f 34/210/11 33/208/31 37/33/32 36/18/12
f 33/208/31 32/204/33 38/34/34 37/33/32
s 4
f 32/204/35 31/14/14 35/202/13 38/34/36
s 5
f 5/10/37 6/230/38 7/19/39
f 5/10/37 7/19/39 8/20/40
f 5/10/37 8/20/40 9/1/41
f 14/12/42 15/222/43 16/23/44
f 14/12/42 16/23/44 17/24/45
f 14/12/42 17/24/45 18/3/46
f 3/82/47 23/214/48 24/27/49
f 3/82/47 24/27/49 25/28/50
f 3/82/47 25/28/50 26/5/51
f 2/78/52 31/206/53 32/31/54
f 2/78/52 32/31/54 33/32/55
f 2/78/52 33/32/55 34/7/56
s off
f 35/8/57 19/225/58 20/223/59 21/220/60 22/4/61 11/233/62 12/231/63 13/228/64 10/2/65 28/217/66 29/215/67 30/212/68 27/6/69 36/209/70 37/207/71 38/203/72
s 5
f 42/84/73 41/104/74 44/105/75 43/85/76
f 41/104/74 40/103/77 45/106/78 44/105/79
f 40/103/77 39/200/80 46/199/81 45/106/78
f 50/198/82 49/108/83 52/109/84 51/197/85
f 49/108/83 48/107/86 53/110/87 52/109/84
f 48/107/86 47/45/88 54/79/89 53/110/87
f 58/86/90 57/112/91 60/113/92 59/87/93
f 57/112/91 56/111/94 61/114/95 60/113/92
f 56/111/96 55/196/97 62/195/98 61/114/99
f 66/194/100 65/116/101 68/117/102 67/193/103
f 65/116/101 64/115/104 69/118/105 68/117/102
f 64/115/104 63/46/106 70/83/107 69/118/108
f 74/88/109 73/120/110 76/121/111 75/89/112
f 73/120/110 72/119/113 77/122/114 76/121/111
f 72/119/113 71/192/115 78/169/116 77/122/117
f 82/191/118 81/124/119 84/125/120 83/167/121
f 81/124/122 80/123/123 85/126/124 84/125/125
f 80/123/123 79/47/126 86/93/127 85/126/124
f 90/190/128 89/128/129 92/129/130 91/189/131
f 89/128/129 88/127/132 93/130/133 92/129/130
f 88/127/134 87/35/135 94/94/136 93/130/133
f 98/75/137 97/132/138 100/133/139 99/44/140
f 97/132/141 96/131/142 101/134/143 100/133/144
f 96/131/142 95/188/145 102/187/146 101/134/143
f 39/36/80 50/49/82 51/37/85 46/58/81
f 55/38/97 66/55/100 67/39/103 62/64/98
f 71/40/115 82/61/118 83/168/121 78/70/116
f 91/42/131 102/67/146 95/43/145 90/52/128
f 1/74/147 98/75/137 99/44/140 4/92/148 5/10/37 9/1/41 15/222/43 14/12/42
f 2/78/52 54/79/89 47/45/88 1/74/147 14/12/42 18/3/46 31/206/53
f 3/82/47 70/83/107 63/46/106 2/78/52 34/7/56 23/214/48
f 4/92/148 86/93/127 79/47/126 3/82/47 26/5/51 6/230/38 5/10/37
f 39/36/80 103/48/149 107/51/150 50/49/82
f 103/48/149 111/50/151 115/53/152 107/51/150
f 111/50/151 90/52/128 95/43/145 115/53/152
f 55/38/97 119/54/153 123/57/154 66/55/100
f 119/54/153 127/56/155 131/59/156 123/57/154
f 127/56/155 46/58/81 51/37/85 131/59/156
f 71/40/115 135/60/157 139/63/158 82/61/118
f 135/60/157 143/62/159 147/65/160 139/63/158
f 143/62/159 62/64/98 67/39/103 147/65/160
f 91/42/131 151/66/161 155/69/162 102/67/146
f 151/66/161 159/68/163 163/71/164 155/69/162
f 159/68/163 78/170/116 83/41/121 163/71/164
f 1/74/147 47/45/88 110/72/165
f 1/74/147 110/72/165 118/73/166
f 1/74/147 118/73/166 98/75/137
f 2/78/52 63/46/106 126/76/167
f 2/78/52 126/76/167 134/77/168
f 2/78/52 134/77/168 54/79/89
f 3/82/47 79/47/126 142/80/169
f 3/82/47 142/80/169 150/81/170
f 3/82/47 150/81/170 70/83/107
f 94/94/136 87/35/135 114/96/171 106/95/172 42/84/73 43/85/76 130/98/173 122/97/174 58/86/90 59/87/93 146/100/175 138/99/176 74/88/109 75/89/112 162/102/177 154/101/178
f 4/92/148 99/44/140 158/90/179
f 4/92/148 158/90/179 166/91/180
f 4/92/148 166/91/180 86/93/127
f 41/104/74 42/84/73 106/95/172 105/136/181
f 39/200/80 40/103/77 104/135/182 103/186/149
f 40/103/77 41/104/74 105/136/181 104/135/183
f 53/110/87 54/79/89 134/77/168 133/150/184
f 51/197/85 52/109/84 132/149/185 131/180/156
f 52/109/84 53/110/87 133/150/184 132/149/185
f 57/112/91 58/86/90 122/97/174 121/144/186
f 55/196/97 56/111/96 120/143/187 119/182/153
f 56/111/94 57/112/91 121/144/188 120/143/187
f 69/118/108 70/83/107 150/81/170 149/158/189
f 67/193/103 68/117/102 148/157/190 147/176/160
f 68/117/102 69/118/105 149/158/191 148/157/190
f 73/120/110 74/88/109 138/99/176 137/152/192
f 71/192/115 72/119/113 136/151/193 135/178/157
f 72/119/113 73/120/110 137/152/192 136/151/193
f 85/126/124 86/93/127 166/91/180 165/166/194
f 83/167/121 84/125/120 164/165/195 163/172/164
f 84/125/125 85/126/124 165/166/196 164/165/195
f 93/130/133 94/94/136 154/101/178 153/160/197
f 91/189/131 92/129/130 152/159/198 151/174/161
f 92/129/130 93/130/133 153/160/197 152/159/199
f 97/132/138 98/75/137 118/73/166 117/142/200
f 95/188/145 96/131/142 116/141/201 115/184/152
f 96/131/142 97/132/141 117/142/200 116/141/201
f 105/136/181 106/95/172 114/96/171 113/140/202
f 103/186/149 104/135/182 112/139/203 111/185/151
f 104/135/183 105/136/181 113/140/204 112/139/203
f 47/45/88 48/107/86 109/138/205 110/72/165
f 48/107/86 49/108/83 108/137/206 109/138/205
f 49/108/83 50/198/82 107/183/150 108/137/206
f 87/35/135 88/127/134 113/140/202 114/96/171
f 88/127/132 89/128/129 112/139/203 113/140/204
f 89/128/129 90/190/128 111/185/151 112/139/203
f 110/72/165 109/138/205 117/142/200 118/73/166
f 109/138/205 108/137/206 116/141/201 117/142/200
f 108/137/206 107/183/150 115/184/152 116/141/201
f 121/144/186 122/97/174 130/98/173 129/148/207
f 119/182/153 120/143/187 128/147/208 127/181/155
f 120/143/187 121/144/188 129/148/209 128/147/208
f 63/46/106 64/115/104 125/146/210 126/76/167
f 64/115/104 65/116/101 124/145/211 125/146/210
f 65/116/101 66/194/100 123/179/154 124/145/211
f 43/85/76 44/105/75 129/148/207 130/98/173
f 44/105/79 45/106/78 128/147/208 129/148/209
f 45/106/78 46/199/81 127/181/155 128/147/208
f 126/76/167 125/146/210 133/150/184 134/77/168
f 125/146/210 124/145/211 132/149/185 133/150/184
f 124/145/211 123/179/154 131/180/156 132/149/185
f 137/152/192 138/99/176 146/100/175 145/156/212
f 135/178/157 136/151/193 144/155/213 143/177/159
f 136/151/193 137/152/192 145/156/212 144/155/213
f 79/47/126 80/123/123 141/154/214 142/80/169
f 80/123/123 81/124/122 140/153/215 141/154/216
f 81/124/119 82/191/118 139/175/158 140/153/217
f 59/87/93 60/113/92 145/156/212 146/100/175
f 60/113/92 61/114/95 144/155/213 145/156/212
f 61/114/99 62/195/98 143/177/159 144/155/213
f 142/80/169 141/154/214 149/158/189 150/81/170
f 141/154/216 140/153/215 148/157/190 149/158/191
f 140/153/217 139/175/158 147/176/160 148/157/190
f 153/160/197 154/101/178 162/102/177 161/164/218
f 151/174/161 152/159/198 160/163/219 159/173/163
f 152/159/199 153/160/197 161/164/218 160/163/220
f 99/44/140 100/133/139 157/162/221 158/90/179
f 100/133/144 101/134/143 156/161/222 157/162/223
f 101/134/143 102/187/146 155/171/162 156/161/222
f 75/89/112 76/121/111 161/164/218 162/102/177
f 76/121/111 77/122/114 160/163/220 161/164/218
f 77/122/117 78/169/116 159/173/163 160/163/219
f 158/90/179 157/162/221 165/166/194 166/91/180
f 157/162/223 156/161/222 164/165/195 165/166/196
f 156/161/222 155/171/162 163/172/164 164/165/195
